<svg width="16" height="16" viewBox="0 0 16 16" fill="none" xmlns="http://www.w3.org/2000/svg">
<g clip-path="url(#clip0_149_121)">
<path d="M12.553 10.3298C12.056 11.3622 11.2225 12.1947 10.1895 12.6905L11.2618 15.2842C12.9828 14.5028 14.3628 13.1248 15.1467 11.4049L12.553 10.3298ZM9.67018 12.9038C8.5901 13.2893 7.4099 13.2893 6.32982 12.9038L5.25474 15.5031C7.02561 16.164 8.97575 16.162 10.7453 15.4975L9.67018 12.9038ZM3.45263 10.327L0.856141 11.4021C1.63754 13.1231 3.01554 14.5031 4.73544 15.287L5.81333 12.6905C4.78036 12.1943 3.94759 11.3605 3.45263 10.327ZM3.23649 6.47014L0.637193 5.39505C-0.0236614 7.16592 -0.0216673 9.11606 0.642807 10.8856L3.2393 9.80768C2.85933 8.72778 2.85834 7.55068 3.23649 6.47014ZM4.73544 0.993649C3.01394 1.7748 1.63449 3.15425 0.853334 4.87575L3.44983 5.95084C3.9439 4.91774 4.77847 4.08614 5.81333 3.59575L4.73544 0.993649ZM5.25474 0.777509L6.33263 3.38242C7.41151 2.99745 8.59001 2.99546 9.67018 3.37681L10.7453 0.777509C8.97554 0.11225 7.02446 0.11225 5.25474 0.777509ZM11.2646 0.993649L10.1895 3.58733C10.2793 3.63225 10.3663 3.67716 10.4533 3.72488L11.4779 2.70032L11.2786 2.50102C11.2074 2.42982 11.1796 2.32604 11.2056 2.22877C11.2317 2.13151 11.3077 2.05553 11.4049 2.02947C11.5022 2.00341 11.606 2.03122 11.6772 2.10242L11.8737 2.30172L12.4856 1.68979C12.1003 1.42162 11.6916 1.18863 11.2646 0.993649ZM15.6126 0.547333C15.2793 0.23014 14.7558 0.23014 14.4225 0.547333L12.2723 2.70032L12.8674 3.2954L13.4625 3.89049L15.6126 1.74032C15.942 1.41085 15.942 0.876797 15.6126 0.547333ZM14.4674 3.67996L13.8582 4.28628L14.0575 4.48558C14.1101 4.53803 14.1396 4.60923 14.1396 4.68347C14.1396 4.75772 14.1101 4.82892 14.0575 4.88137C14.0058 4.93517 13.9343 4.96557 13.8597 4.96557C13.785 4.96557 13.7135 4.93517 13.6618 4.88137L13.4625 4.68488L12.4295 5.71786C12.4716 5.79646 12.5109 5.87225 12.5474 5.95365L15.1467 4.87575C14.9544 4.45869 14.7272 4.05867 14.4674 3.67996ZM11.8737 3.09611L8.43228 6.54032C8.10448 6.86888 8.10323 7.40039 8.42947 7.73049H8.43228C8.76104 8.0589 9.29369 8.0589 9.62246 7.73049L13.0667 4.28628L11.8737 3.09611ZM9.02737 8.53891C8.90372 8.53716 8.78091 8.51827 8.66246 8.48277C8.63195 8.64871 8.55167 8.80144 8.43228 8.92067C8.3796 8.974 8.30794 9.00428 8.23298 9.00488C8.11961 9.00418 8.01767 8.93567 7.97419 8.83095C7.93071 8.72624 7.95415 8.60568 8.03368 8.52488C8.14221 8.41417 8.14221 8.23698 8.03368 8.12628C7.9222 8.0224 7.74938 8.0224 7.6379 8.12628C7.52757 8.23574 7.34962 8.23574 7.2393 8.12628C7.18674 8.07383 7.15721 8.00263 7.15721 7.92839C7.15721 7.85414 7.18674 7.78294 7.2393 7.73049C7.35963 7.61213 7.51351 7.53372 7.68 7.50593C7.61452 7.26719 7.61356 7.01535 7.67719 6.7761C7.03405 6.93012 6.58609 7.51275 6.6025 8.17387C6.6189 8.83499 7.09522 9.39468 7.7452 9.5166C8.39519 9.63852 9.04196 9.2895 9.29684 8.67926C9.3203 8.61879 9.33999 8.55691 9.35579 8.494C9.2484 8.5215 9.1382 8.53657 9.02737 8.53891ZM11.8737 3.09611L8.43228 6.54032C8.10448 6.86888 8.10323 7.40039 8.42947 7.73049H8.43228C8.76104 8.0589 9.29369 8.0589 9.62246 7.73049L13.0667 4.28628L11.8737 3.09611ZM9.02737 8.53891C8.90372 8.53716 8.78091 8.51827 8.66246 8.48277C8.63195 8.64871 8.55167 8.80144 8.43228 8.92067C8.3796 8.974 8.30794 9.00428 8.23298 9.00488C8.11961 9.00418 8.01767 8.93567 7.97419 8.83095C7.93071 8.72624 7.95415 8.60568 8.03368 8.52488C8.14221 8.41417 8.14221 8.23698 8.03368 8.12628C7.9222 8.0224 7.74938 8.0224 7.6379 8.12628C7.52757 8.23574 7.34962 8.23574 7.2393 8.12628C7.18674 8.07383 7.15721 8.00263 7.15721 7.92839C7.15721 7.85414 7.18674 7.78294 7.2393 7.73049C7.35963 7.61213 7.51351 7.53372 7.68 7.50593C7.61452 7.26719 7.61356 7.01535 7.67719 6.7761C7.03405 6.93012 6.58609 7.51275 6.6025 8.17387C6.6189 8.83499 7.09522 9.39468 7.7452 9.5166C8.39519 9.63852 9.04196 9.2895 9.29684 8.67926C9.3203 8.61879 9.33999 8.55691 9.35579 8.494C9.2484 8.5215 9.1382 8.53657 9.02737 8.53891ZM15.3628 5.39505L12.7607 6.47295C13.1448 7.55215 13.1458 8.73065 12.7635 9.81049L15.3628 10.8856C16.0281 9.11586 16.0281 7.16477 15.3628 5.39505ZM8.66246 8.48277C8.63195 8.64871 8.55167 8.80144 8.43228 8.92067C8.3796 8.974 8.30794 9.00428 8.23298 9.00488C8.11961 9.00418 8.01767 8.93567 7.97419 8.83095C7.93071 8.72624 7.95415 8.60568 8.03368 8.52488C8.14221 8.41417 8.14221 8.23698 8.03368 8.12628C7.9222 8.0224 7.74938 8.0224 7.6379 8.12628C7.52757 8.23574 7.34962 8.23574 7.2393 8.12628C7.18674 8.07383 7.15721 8.00263 7.15721 7.92839C7.15721 7.85414 7.18674 7.78294 7.2393 7.73049C7.35963 7.61213 7.51351 7.53372 7.68 7.50593C7.61452 7.26719 7.61356 7.01535 7.67719 6.7761C7.03405 6.93012 6.58609 7.51275 6.6025 8.17387C6.6189 8.83499 7.09522 9.39468 7.7452 9.5166C8.39519 9.63852 9.04196 9.2895 9.29684 8.67926C9.3203 8.61879 9.33999 8.55691 9.35579 8.494C9.2484 8.5215 9.1382 8.53657 9.02737 8.53891C8.90372 8.53716 8.78091 8.51827 8.66246 8.48277Z" fill="#D4BE98"/>
</g>
<defs>
<clipPath id="clip0_149_121">
<rect width="16" height="16" fill="white"/>
</clipPath>
</defs>
</svg>

