<svg width="16" height="16" viewBox="0 0 16 16" xmlns="http://www.w3.org/2000/svg">
<path d="M6.51451 0.75V2H9.48549V0.75C9.48549 0.541667 9.5577 0.364583 9.70213 0.21875C9.84655 0.0729167 10.0219 0 10.2282 0C10.4346 0 10.6099 0.0729167 10.7544 0.21875C10.8988 0.364583 10.971 0.541667 10.971 0.75V2H12.2089C12.6886 2 13.0974 2.17057 13.4352 2.51172C13.773 2.85286 13.942 3.26562 13.942 3.75V5H15.1799C15.3862 5 15.5616 5.07292 15.706 5.21875C15.8504 5.36458 15.9226 5.54167 15.9226 5.75C15.9226 5.95833 15.8504 6.13542 15.706 6.28125C15.5616 6.42708 15.3862 6.5 15.1799 6.5H13.942V9.5H15.1799C15.3862 9.5 15.5616 9.57292 15.706 9.71875C15.8504 9.86458 15.9226 10.0417 15.9226 10.25C15.9226 10.4583 15.8504 10.6354 15.706 10.7812C15.5616 10.9271 15.3862 11 15.1799 11H13.942V12.25C13.942 12.7344 13.773 13.1471 13.4352 13.4883C13.0974 13.8294 12.6886 14 12.2089 14H10.971V15.25C10.971 15.4583 10.8988 15.6354 10.7544 15.7812C10.6099 15.9271 10.4346 16 10.2282 16C10.0219 16 9.84655 15.9271 9.70213 15.7812C9.5577 15.6354 9.48549 15.4583 9.48549 15.25V14H6.51451V15.25C6.51451 15.4583 6.4423 15.6354 6.29787 15.7812C6.15345 15.9271 5.97808 16 5.77176 16C5.56544 16 5.39007 15.9271 5.24565 15.7812C5.10122 15.6354 5.02901 15.4583 5.02901 15.25V14H3.7911C3.31141 14 2.90264 13.8294 2.5648 13.4883C2.22695 13.1471 2.05803 12.7344 2.05803 12.25V11H0.820116C0.613798 11 0.438427 10.9271 0.294004 10.7812C0.149581 10.6354 0.0773697 10.4583 0.0773697 10.25C0.0773697 10.0417 0.149581 9.86458 0.294004 9.71875C0.438427 9.57292 0.613798 9.5 0.820116 9.5H2.05803V6.5H0.820116C0.613798 6.5 0.438427 6.42708 0.294004 6.28125C0.149581 6.13542 0.0773697 5.95833 0.0773697 5.75C0.0773697 5.54167 0.149581 5.36458 0.294004 5.21875C0.438427 5.07292 0.613798 5 0.820116 5H2.05803V3.75C2.05803 3.26562 2.22695 2.85286 2.5648 2.51172C2.90264 2.17057 3.31141 2 3.7911 2H5.02901V0.75C5.02901 0.541667 5.10122 0.364583 5.24565 0.21875C5.39007 0.0729167 5.56544 0 5.77176 0C5.97808 0 6.15345 0.0729167 6.29787 0.21875C6.4423 0.364583 6.51451 0.541667 6.51451 0.75ZM12.2089 12.5C12.276 12.5 12.334 12.4753 12.383 12.4258C12.432 12.3763 12.4565 12.3177 12.4565 12.25V3.75C12.4565 3.68229 12.432 3.6237 12.383 3.57422C12.334 3.52474 12.276 3.5 12.2089 3.5H3.7911C3.72405 3.5 3.66602 3.52474 3.61702 3.57422C3.56802 3.6237 3.54352 3.68229 3.54352 3.75V12.25C3.54352 12.3177 3.56802 12.3763 3.61702 12.4258C3.66602 12.4753 3.72405 12.5 3.7911 12.5H12.2089ZM5.77176 5H10.2282C10.4346 5 10.6099 5.07292 10.7544 5.21875C10.8988 5.36458 10.971 5.54167 10.971 5.75V10.25C10.971 10.4583 10.8988 10.6354 10.7544 10.7812C10.6099 10.9271 10.4346 11 10.2282 11H5.77176C5.56544 11 5.39007 10.9271 5.24565 10.7812C5.10122 10.6354 5.02901 10.4583 5.02901 10.25V5.75C5.02901 5.54167 5.10122 5.36458 5.24565 5.21875C5.39007 5.07292 5.56544 5 5.77176 5ZM6.51451 9.5H9.48549V6.5H6.51451V9.5Z" />
</svg>
