
<svg width="16" height="12" viewBox="0 0 16 12" fill="none" xmlns="http://www.w3.org/2000/svg">
<path d="M6.66667 4.33333H4.66667V7.33333H6.66667V4.33333Z" />
<path d="M15.6667 1.83333H1.83333V0.333333C1.83333 0.244929 1.79821 0.160147 1.7357 0.0976354C1.67319 0.0351242 1.5884 3.97792e-06 1.5 0H0V0.666667H1.16667V2.66667H0.333333C0.244929 2.66667 0.160147 2.70179 0.0976355 2.7643C0.0351242 2.82681 3.97792e-06 2.9116 0 3V4.83333C3.97792e-06 4.92174 0.0351242 5.00652 0.0976355 5.06903C0.160147 5.13154 0.244929 5.16666 0.333333 5.16667H1.16667V5.66667H0.333333C0.244929 5.66667 0.160147 5.70179 0.0976355 5.7643C0.0351242 5.82681 3.97792e-06 5.9116 0 6L0 9C3.97792e-06 9.0884 0.0351242 9.17319 0.0976355 9.2357C0.160147 9.29821 0.244929 9.33333 0.333333 9.33333H1.16667V12H1.83333V10.1667H2.66667V11.1667C2.66667 11.2551 2.70179 11.3399 2.7643 11.4024C2.82681 11.4649 2.9116 11.5 3 11.5H10.5C10.5884 11.5 10.6732 11.4649 10.7357 11.4024C10.7982 11.3399 10.8333 11.2551 10.8333 11.1667V10.1667H11.3333V11.1667C11.3333 11.2551 11.3685 11.3399 11.431 11.4024C11.4935 11.4649 11.5783 11.5 11.6667 11.5H14.6667C14.7551 11.5 14.8399 11.4649 14.9024 11.4024C14.9649 11.3399 15 11.2551 15 11.1667V10.1667H15.6667C15.7551 10.1667 15.8399 10.1315 15.9024 10.069C15.9649 10.0065 16 9.92174 16 9.83333V2.16667C16 2.07826 15.9649 1.99348 15.9024 1.93097C15.8399 1.86846 15.7551 1.83334 15.6667 1.83333ZM7.75 4.88835C7.83841 4.88835 7.92319 4.92347 7.9857 4.98598C8.04821 5.04849 8.08333 5.13328 8.08333 5.22168C8.08333 5.31009 8.04821 5.39487 7.9857 5.45739C7.92319 5.5199 7.83841 5.55502 7.75 5.55502H7.33333V6.11165H7.75C7.83841 6.11165 7.92319 6.14677 7.9857 6.20928C8.04821 6.27179 8.08333 6.35658 8.08333 6.44498C8.08333 6.53339 8.04821 6.61817 7.9857 6.68069C7.92319 6.7432 7.83841 6.77832 7.75 6.77832H7.33333V7.33333H7.75C7.83841 7.33333 7.92319 7.36845 7.9857 7.43096C8.04821 7.49348 8.08333 7.57826 8.08333 7.66667C8.08333 7.75507 8.04821 7.83986 7.9857 7.90237C7.92319 7.96488 7.83841 8 7.75 8H3.58333C3.49493 8 3.41014 7.96488 3.34763 7.90237C3.28512 7.83986 3.25 7.75507 3.25 7.66667C3.25 7.57826 3.28512 7.49348 3.34763 7.43096C3.41014 7.36845 3.49493 7.33333 3.58333 7.33333H4V6.77832H3.58333C3.49493 6.77832 3.41014 6.7432 3.34763 6.68069C3.28512 6.61817 3.25 6.53339 3.25 6.44498C3.25 6.35658 3.28512 6.27179 3.34763 6.20928C3.41014 6.14677 3.49493 6.11165 3.58333 6.11165H4V5.55502H3.58333C3.49493 5.55502 3.41014 5.5199 3.34763 5.45739C3.28512 5.39487 3.25 5.31009 3.25 5.22168C3.25 5.13328 3.28512 5.04849 3.34763 4.98598C3.41014 4.92347 3.49493 4.88835 3.58333 4.88835H4V4.33333H3.58333C3.49493 4.33333 3.41014 4.29821 3.34763 4.2357C3.28512 4.17319 3.25 4.08841 3.25 4C3.25 3.91159 3.28512 3.82681 3.34763 3.7643C3.41014 3.70179 3.49493 3.66667 3.58333 3.66667H7.75C7.83841 3.66667 7.92319 3.70179 7.9857 3.7643C8.04821 3.82681 8.08333 3.91159 8.08333 4C8.08333 4.08841 8.04821 4.17319 7.9857 4.2357C7.92319 4.29821 7.83841 4.33333 7.75 4.33333H7.33333V4.88835H7.75ZM13.3333 7.08333V7.66667H10.6667V6.5H13.3333V7.08333ZM13.3333 4.58333V5.16667H10.6667V4H13.3333V4.58333Z" />
</svg>
