<svg width="14" height="14" viewBox="0 0 14 14" fill="none" xmlns="http://www.w3.org/2000/svg">
<path d="M1.61122 2.33105H12.3888C12.813 2.33105 13.1763 2.48372 13.4787 2.78906C13.7811 3.0944 13.9323 3.46126 13.9323 3.88965V4.07422C13.9323 4.22917 13.8511 4.35905 13.6886 4.46387C13.5261 4.56868 13.3975 4.70768 13.3027 4.88086C13.2079 5.05404 13.1605 5.24202 13.1605 5.44482C13.1605 5.64762 13.2091 5.83561 13.3061 6.00879C13.4031 6.18197 13.5306 6.32096 13.6886 6.42578C13.8511 6.53516 13.9323 6.66732 13.9323 6.82227V8.55859H0.0676975V6.82227C0.0676975 6.66732 0.148935 6.53516 0.311411 6.42578C0.469374 6.32096 0.596872 6.18197 0.693906 6.00879C0.790941 5.83561 0.839458 5.64762 0.839458 5.44482C0.839458 5.24202 0.792069 5.05404 0.697291 4.88086C0.602514 4.70768 0.473887 4.56868 0.311411 4.46387C0.148935 4.35905 0.0676975 4.22917 0.0676975 4.07422V3.88965C0.0676975 3.46126 0.21889 3.0944 0.521276 2.78906C0.823661 2.48372 1.18698 2.33105 1.61122 2.33105ZM13.9323 9.33105V10.8896C13.9323 11.1038 13.8578 11.2873 13.7089 11.4399C13.56 11.5926 13.3772 11.6689 13.1605 11.6689H12.0097V10.8896C12.0097 10.7848 11.9713 10.6937 11.8946 10.6162C11.8179 10.5387 11.7265 10.5 11.6204 10.5C11.5143 10.5 11.4241 10.5387 11.3496 10.6162C11.2751 10.6937 11.2379 10.7848 11.2379 10.8896V11.6689H8.92263V10.8896C8.92263 10.7848 8.8854 10.6937 8.81093 10.6162C8.73646 10.5387 8.6462 10.5 8.54014 10.5C8.43407 10.5 8.34381 10.5387 8.26934 10.6162C8.19487 10.6937 8.15764 10.7848 8.15764 10.8896V11.6689H5.84236V10.8896C5.84236 10.7848 5.80513 10.6937 5.73066 10.6162C5.65619 10.5387 5.56592 10.5 5.45986 10.5C5.3538 10.5 5.26354 10.5387 5.18907 10.6162C5.1146 10.6937 5.07737 10.7848 5.07737 10.8896V11.6689H2.76209V10.8896C2.76209 10.7848 2.72485 10.6937 2.65039 10.6162C2.57592 10.5387 2.48565 10.5 2.37959 10.5C2.27353 10.5 2.18214 10.5387 2.10542 10.6162C2.02869 10.6937 1.99033 10.7848 1.99033 10.8896V11.6689H0.839458C0.622823 11.6689 0.440038 11.5926 0.291102 11.4399C0.142166 11.2873 0.0676975 11.1038 0.0676975 10.8896V9.33105H13.9323ZM4.69149 4.66895C4.69149 4.4502 4.61589 4.26562 4.4647 4.11523C4.31351 3.96484 4.13185 3.88965 3.91973 3.88965C3.70761 3.88965 3.52595 3.96484 3.37476 4.11523C3.22356 4.26562 3.14797 4.4502 3.14797 4.66895V6.2207C3.14797 6.43945 3.22356 6.62402 3.37476 6.77441C3.52595 6.9248 3.70761 7 3.91973 7C4.13185 7 4.31351 6.9248 4.4647 6.77441C4.61589 6.62402 4.69149 6.43945 4.69149 6.2207V4.66895ZM7.77176 4.66895C7.77176 4.4502 7.69616 4.26562 7.54497 4.11523C7.39378 3.96484 7.21212 3.88965 7 3.88965C6.78788 3.88965 6.60622 3.96484 6.45503 4.11523C6.30384 4.26562 6.22824 4.4502 6.22824 4.66895V6.2207C6.22824 6.43945 6.30384 6.62402 6.45503 6.77441C6.60622 6.9248 6.78788 7 7 7C7.21212 7 7.39378 6.9248 7.54497 6.77441C7.69616 6.62402 7.77176 6.43945 7.77176 6.2207V4.66895ZM10.852 4.66895C10.852 4.4502 10.7764 4.26562 10.6252 4.11523C10.474 3.96484 10.2924 3.88965 10.0803 3.88965C9.86815 3.88965 9.68649 3.96484 9.5353 4.11523C9.38411 4.26562 9.30851 4.4502 9.30851 4.66895V6.2207C9.30851 6.43945 9.38411 6.62402 9.5353 6.77441C9.68649 6.9248 9.86815 7 10.0803 7C10.2924 7 10.474 6.9248 10.6252 6.77441C10.7764 6.62402 10.852 6.43945 10.852 6.2207V4.66895Z" fill="#D4BE98"/>
</svg>

